<!-- Мини-«колесо жизни» — логотип-ссылка «домой» в навбаре блога.
     Статичная копия HomeMark.vue (7 сфер, та же геометрия) — менять синхронно. -->
<svg xmlns="http://www.w3.org/2000/svg" viewBox="0 0 32 32" width="32" height="32">
  <path fill="#ff6688" opacity=".85" d="M16.17,11 L16.49,2.01 A14,14,0,0,1,26.63,6.89 L19.8,12.75 A5,5,0,0,0,16.17,11 Z"/>
  <path fill="#33ff4d" opacity=".85" d="M20.02,13.02 L26.44,8.25 A13,13,0,0,1,28.77,18.45 L20.91,16.94 A5,5,0,0,0,20.02,13.02 Z"/>
  <path fill="#b34dff" opacity=".85" d="M20.83,17.28 L25.67,18.56 A10,10,0,0,1,20.65,24.85 L18.33,20.43 A5,5,0,0,0,20.83,17.28 Z"/>
  <path fill="#ffaa22" opacity=".85" d="M18.01,20.58 L19.62,24.24 A9,9,0,0,1,12.38,24.24 L13.99,20.58 A5,5,0,0,0,18.01,20.58 Z"/>
  <path fill="#1accff" opacity=".85" d="M13.67,20.43 L11.81,23.97 A9,9,0,0,1,7.3,18.31 L11.17,17.28 A5,5,0,0,0,13.67,20.43 Z"/>
  <path fill="#ff9933" opacity=".85" d="M11.09,16.94 L7.16,17.7 A9,9,0,0,1,8.77,10.64 L11.98,13.02 A5,5,0,0,0,11.09,16.94 Z"/>
  <path fill="#33ffcc" opacity=".85" d="M12.2,12.75 L9.16,10.15 A9,9,0,0,1,15.69,7.01 L15.83,11 A5,5,0,0,0,12.2,12.75 Z"/>
</svg>
